<?xml version="1.0" encoding="UTF-8"?>
<!-- Created with Inkscape (http://www.inkscape.org/) -->
<svg width="155.45" height="141.35" version="1.1" viewBox="0 0 155.45 141.35" xml:space="preserve" xmlns="http://www.w3.org/2000/svg"><defs><clipPath id="clipPath16"><path d="M 0,106.014 H 116.591 V 0 H 0 Z"/></clipPath></defs><g transform="matrix(1.3333 0 0 -1.3333 0 141.35)"><g clip-path="url(#clipPath16)"><g transform="translate(97.918,50.335)"><path d="m0 0c0-24.3-19.699-44-44-44s-44 19.7-44 44 19.699 44 44 44 44-19.7 44-44" fill="#f9f9f9"/></g><g transform="translate(7.668,21.002)"><path d="m0 0c0-2.117-1.716-3.834-3.834-3.834-2.117 0-3.834 1.717-3.834 3.834s1.717 3.834 3.834 3.834c2.118 0 3.834-1.717 3.834-3.834" fill="#f9f9f9"/></g><g transform="translate(37.669 98.418)"><path d="m0 0c0-1.197-0.971-2.167-2.168-2.167-1.196 0-2.167 0.97-2.167 2.167s0.971 2.167 2.167 2.167c1.197 0 2.168-0.97 2.168-2.167" fill="#f9f9f9"/></g><g transform="translate(20.669 7.918)"><path d="m0 0c0-4.372-3.544-7.918-7.918-7.918-4.371 0-7.917 3.546-7.917 7.918 0 4.373 3.546 7.917 7.917 7.917 4.374 0 7.918-3.544 7.918-7.917" fill="#f9f9f9"/></g><g transform="translate(104.67 73.085)"><path d="m0 0c0-2.209-1.791-4-4.001-4-2.209 0-4 1.791-4 4s1.791 4 4 4c2.21 0 4.001-1.791 4.001-4" fill="#f9f9f9"/></g><g transform="translate(24.591 100.76)"><path d="m0 0h-4.25v4.25c0 0.55-0.45 1-1 1h-3.25c-0.55 0-1-0.45-1-1v-4.25h-4.25c-0.55 0-1-0.45-1-1v-3.25c0-0.55 0.45-1 1-1h4.25v-4.25c0-0.55 0.45-1 1-1h3.25c0.55 0 1 0.45 1 1v4.25h4.25c0.55 0 1 0.45 1 1v3.25c0 0.55-0.45 1-1 1" fill="#f9f9f9"/></g><g transform="translate(99.93 88.042)"><path d="m0 0h-2.811v2.811c0 0.363-0.297 0.661-0.662 0.661h-2.149c-0.363 0-0.661-0.298-0.661-0.661v-2.811h-2.812c-0.363 0-0.661-0.298-0.661-0.662v-2.149c0-0.364 0.298-0.662 0.661-0.662h2.812v-2.811c0-0.363 0.298-0.661 0.661-0.661h2.149c0.365 0 0.662 0.298 0.662 0.661v2.811h2.811c0.363 0 0.661 0.298 0.661 0.662v2.149c0 0.364-0.298 0.662-0.661 0.662" fill="#f9f9f9"/></g><g transform="translate(15.983 21.736)"><path d="m0 0h-1.462v1.461c0 0.189-0.154 0.344-0.344 0.344h-1.118c-0.188 0-0.344-0.155-0.344-0.344v-1.461h-1.461c-0.189 0-0.344-0.155-0.344-0.344v-1.119c0-0.188 0.155-0.344 0.344-0.344h1.461v-1.461c0-0.189 0.156-0.343 0.344-0.343h1.118c0.19 0 0.344 0.154 0.344 0.343v1.461h1.462c0.189 0 0.344 0.156 0.344 0.344v1.119c0 0.189-0.155 0.344-0.344 0.344" fill="#f9f9f9"/></g><g transform="translate(115.15 19.222)"><path d="m0 0h-6.139v6.139c0 0.794-0.65 1.444-1.444 1.444h-4.694c-0.795 0-1.446-0.65-1.446-1.444v-6.139h-6.138c-0.794 0-1.445-0.65-1.445-1.444v-4.695c0-0.794 0.651-1.444 1.445-1.444h6.138v-6.139c0-0.795 0.651-1.445 1.446-1.445h4.694c0.794 0 1.444 0.65 1.444 1.445v6.139h6.139c0.794 0 1.444 0.65 1.444 1.444v4.695c0 0.794-0.65 1.444-1.444 1.444" fill="#f9f9f9"/></g><g transform="translate(65.263 60.296)"><path d="m0 0h-26.853c-2.549 5e-3 -4.625 2.083-4.629 4.628v5.324c4e-3 2.551 2.082 4.626 4.628 4.632h26.851c2.548-6e-3 4.624-2.081 4.63-4.628l-2e-3 -5.325c-4e-3 -2.548-2.078-4.626-4.625-4.631" fill="#00fff1"/></g><g transform="translate(54.843 35.878)"><path d="m0 0v-11.574c-2e-3 -1.513-1.263-2.775-2.776-2.777h-0.463c-1.516 2e-3 -2.776 1.264-2.779 2.777v11.574c3e-3 1.517 1.263 2.774 2.779 2.778l0.463-2e-3c1.513-2e-3 2.774-1.259 2.776-2.776m13.195 29.049c-4e-3 -1.515-1.263-2.774-2.778-2.778h-26.849c-1.516 4e-3 -2.774 1.263-2.778 2.778v5.321c4e-3 1.516 1.262 2.778 2.778 2.78h26.849c1.515-2e-3 2.774-1.264 2.778-2.78l-2e-3 -5.321zm5.921 5.63c-0.822 2e-3 -1.585 2e-3 -2.235 2e-3 -0.168 3.432-2.991 6.164-6.464 6.172h-26.849c-3.579-8e-3 -6.474-2.904-6.482-6.483v-5.321c8e-3 -3.579 2.903-6.473 6.482-6.483h26.849c3.577 0.01 6.474 2.904 6.479 6.483v1.929h2.22c1.234-3e-3 2.372-1.103 2.372-2.546 0.091-1.471-1.541-3.907-3.133-4.489l-17.853-7.516c-3.141-1.418-5.314-4.688-5.399-8.133v-2.037c-2.773-0.738-4.818-3.254-4.824-6.257v-11.574c7e-3 -3.575 2.904-6.474 6.482-6.478v-2e-3h0.463c3.577 6e-3 6.473 2.905 6.479 6.48v11.574c-5e-3 3.03-2.088 5.564-4.899 6.276v2.018c-0.084 1.644 1.585 4.16 3.135 4.719l17.854 7.516c3.099 1.396 5.311 4.535 5.398 7.903-5e-3 3.39-2.662 6.233-6.075 6.247" fill="#233148"/></g></g></g></svg>
