<?xml version="1.0" encoding="UTF-8"?>
<!-- Created with Inkscape (http://www.inkscape.org/) -->
<svg width="155.45" height="141.35" version="1.1" viewBox="0 0 155.45 141.35" xml:space="preserve" xmlns="http://www.w3.org/2000/svg"><defs><clipPath id="clipPath16"><path d="M 0,106.014 H 116.59 V 0 H 0 Z"/></clipPath></defs><g transform="matrix(1.3333 0 0 -1.3333 0 141.35)"><g clip-path="url(#clipPath16)"><g transform="translate(97.918 50.335)"><path d="m0 0c0-24.3-19.699-44-44-44s-44 19.7-44 44 19.699 44 44 44 44-19.7 44-44" fill="#f9f9f9"/></g><g transform="translate(7.668,21.002)"><path d="m0 0c0-2.117-1.716-3.834-3.834-3.834-2.117 0-3.834 1.717-3.834 3.834s1.717 3.834 3.834 3.834c2.118 0 3.834-1.717 3.834-3.834" fill="#f9f9f9"/></g><g transform="translate(37.669 98.418)"><path d="m0 0c0-1.197-0.971-2.167-2.168-2.167-1.196 0-2.167 0.97-2.167 2.167s0.971 2.167 2.167 2.167c1.197 0 2.168-0.97 2.168-2.167" fill="#f9f9f9"/></g><g transform="translate(20.669 7.918)"><path d="m0 0c0-4.372-3.544-7.918-7.918-7.918-4.371 0-7.917 3.546-7.917 7.918 0 4.373 3.546 7.917 7.917 7.917 4.374 0 7.918-3.544 7.918-7.917" fill="#f9f9f9"/></g><g transform="translate(104.67 73.085)"><path d="m0 0c0-2.209-1.791-4-4-4s-4 1.791-4 4 1.791 4 4 4 4-1.791 4-4" fill="#f9f9f9"/></g><g transform="translate(24.591 100.76)"><path d="m0 0h-4.25v4.25c0 0.55-0.45 1-1 1h-3.25c-0.55 0-1-0.45-1-1v-4.25h-4.25c-0.55 0-1-0.45-1-1v-3.25c0-0.55 0.45-1 1-1h4.25v-4.25c0-0.55 0.45-1 1-1h3.25c0.55 0 1 0.45 1 1v4.25h4.25c0.55 0 1 0.45 1 1v3.25c0 0.55-0.45 1-1 1" fill="#f9f9f9"/></g><g transform="translate(99.93 88.042)"><path d="m0 0h-2.811v2.811c0 0.363-0.298 0.661-0.662 0.661h-2.15c-0.363 0-0.66-0.298-0.66-0.661v-2.811h-2.813c-0.363 0-0.66-0.298-0.66-0.662v-2.149c0-0.364 0.297-0.662 0.66-0.662h2.813v-2.811c0-0.363 0.297-0.661 0.66-0.661h2.15c0.364 0 0.662 0.298 0.662 0.661v2.811h2.811c0.363 0 0.66 0.298 0.66 0.662v2.149c0 0.364-0.297 0.662-0.66 0.662" fill="#f9f9f9"/></g><g transform="translate(15.983 21.736)"><path d="m0 0h-1.462v1.461c0 0.189-0.154 0.344-0.344 0.344h-1.118c-0.188 0-0.344-0.155-0.344-0.344v-1.461h-1.461c-0.189 0-0.344-0.155-0.344-0.344v-1.119c0-0.188 0.155-0.344 0.344-0.344h1.461v-1.461c0-0.189 0.156-0.343 0.344-0.343h1.118c0.19 0 0.344 0.154 0.344 0.343v1.461h1.462c0.189 0 0.344 0.156 0.344 0.344v1.119c0 0.189-0.155 0.344-0.344 0.344" fill="#f9f9f9"/></g><g transform="translate(115.15 19.222)"><path d="m0 0h-6.139v6.139c0 0.794-0.65 1.444-1.445 1.444h-4.693c-0.795 0-1.446-0.65-1.446-1.444v-6.139h-6.138c-0.795 0-1.446-0.65-1.446-1.444v-4.695c0-0.794 0.651-1.444 1.446-1.444h6.138v-6.139c0-0.795 0.651-1.445 1.446-1.445h4.693c0.795 0 1.445 0.65 1.445 1.445v6.139h6.139c0.793 0 1.443 0.65 1.443 1.444v4.695c0 0.794-0.65 1.444-1.443 1.444" fill="#f9f9f9"/></g><g transform="translate(70.252 49.429)"><path d="m0 0 7.251 20.604c0.118 0.334 0.158 0.613 0.156 0.83-7e-3 0.447-0.131 0.664-0.331 0.86-0.094 0.085-0.226 0.17-0.404 0.241-0.058 0.019-0.115 0.04-0.175 0.055-0.05 0.014-0.099 0.028-0.154 0.039-0.175 0.035-0.355 0.057-0.537 0.057-8e-3 1e-3 -0.011 1e-3 -0.019 1e-3h-38.743c-1.651-5e-3 -3.023-1.378-3.026-3.032v-20.98c0.405-1.202 1.536-2.09 2.864-2.093h28.294c1.769-0.089 4.322 1.719 4.824 3.418" fill="#00fff1"/></g><g transform="translate(75.416 68.968)"><path d="m0 0-6.548-18.606c-0.453-1.534-2.76-3.167-4.357-3.087h-25.551c-1.199 4e-3 -2.221 0.805-2.587 1.891v18.948c2e-3 1.492 1.242 2.731 2.734 2.737h34.986c7e-3 0 0.011 0 0.017-3e-3 0.166 0 0.328-0.018 0.486-0.051 0.049-8e-3 0.094-0.022 0.14-0.035 0.054-0.011 0.105-0.032 0.159-0.048 0.157-0.063 0.278-0.142 0.363-0.217 0.182-0.179 0.292-0.374 0.301-0.778 2e-3 -0.197-0.037-0.448-0.143-0.751m2.313 4.214c-0.695 0.641-1.576 1.041-2.533 1.216-0.069 0.012-0.138 0.022-0.208 0.031-0.292 0.042-0.589 0.074-0.895 0.074h-13.847c-0.114 7e-3 -0.227 0.013-0.339 0.013h-30.61c-1.005 0-1.825-0.822-1.825-1.825s0.82-1.825 1.825-1.825h3.91c-2e-3 -4e-3 -6e-3 -9e-3 -8e-3 -0.015h0.15c-0.396-0.83-0.625-1.756-0.627-2.737v-28.138c6e-3 -3.525 2.862-6.382 6.39-6.387h18.1v-1e-3h15.057c1.004 0 1.826 0.82 1.826 1.824 0 1.005-0.822 1.824-1.826 1.824h-4.79v2e-3h-28.367c-1.495 4e-3 -2.737 1.246-2.739 2.738v4.203c0.792-0.351 1.665-0.552 2.587-0.554h25.551c3.423 0.083 6.588 2.322 7.8 5.524l4.522 12.846 2.03 5.77c0.224 0.649 0.345 1.301 0.345 1.954 0.012 1.309-0.518 2.593-1.479 3.463m-12.533-47.733c-0.924 2e-3 -1.67 0.75-1.672 1.672 2e-3 0.924 0.748 1.671 1.672 1.673 0.922-2e-3 1.671-0.749 1.673-1.673-2e-3 -0.922-0.751-1.67-1.673-1.672m0 6.996c-2.939-2e-3 -5.322-2.383-5.322-5.324 0-2.942 2.383-5.322 5.322-5.324 2.94 2e-3 5.321 2.382 5.323 5.324-2e-3 2.941-2.383 5.322-5.323 5.324m-21.256-6.996c-0.922 2e-3 -1.673 0.75-1.674 1.67 1e-3 0.924 0.752 1.673 1.674 1.675 0.924-2e-3 1.671-0.751 1.673-1.675-2e-3 -0.92-0.749-1.668-1.673-1.67m0 6.996c-2.94-2e-3 -5.322-2.383-5.322-5.326 0-2.938 2.382-5.32 5.322-5.32 2.939 0 5.322 2.382 5.324 5.32-2e-3 2.943-2.385 5.324-5.324 5.326" fill="#233148"/></g></g></g></svg>
