<?xml version="1.0" encoding="UTF-8"?>
<!-- Created with Inkscape (http://www.inkscape.org/) -->
<svg width="155.45" height="141.35" version="1.1" viewBox="0 0 155.45 141.35" xml:space="preserve" xmlns="http://www.w3.org/2000/svg"><defs><clipPath id="clipPath16"><path d="M 0,106.014 H 116.591 V 0 H 0 Z"/></clipPath></defs><g transform="matrix(1.3333 0 0 -1.3333 0 141.35)"><g clip-path="url(#clipPath16)"><g transform="translate(97.918 50.335)"><path d="m0 0c0-24.3-19.699-44-44-44s-44 19.7-44 44 19.699 44 44 44 44-19.7 44-44" fill="#f9f9f9"/></g><g transform="translate(7.668,21.002)"><path d="m0 0c0-2.117-1.716-3.834-3.834-3.834-2.117 0-3.834 1.717-3.834 3.834s1.717 3.834 3.834 3.834c2.118 0 3.834-1.717 3.834-3.834" fill="#f9f9f9"/></g><g transform="translate(37.669 98.418)"><path d="m0 0c0-1.197-0.971-2.167-2.168-2.167-1.196 0-2.167 0.97-2.167 2.167s0.971 2.167 2.167 2.167c1.197 0 2.168-0.97 2.168-2.167" fill="#f9f9f9"/></g><g transform="translate(20.669 7.918)"><path d="m0 0c0-4.372-3.544-7.918-7.918-7.918-4.371 0-7.917 3.546-7.917 7.918 0 4.373 3.546 7.917 7.917 7.917 4.374 0 7.918-3.544 7.918-7.917" fill="#f9f9f9"/></g><g transform="translate(104.67 73.085)"><path d="m0 0c0-2.209-1.791-4.001-4-4.001s-4 1.792-4 4.001 1.791 4 4 4 4-1.791 4-4" fill="#f9f9f9"/></g><g transform="translate(24.591 100.76)"><path d="m0 0h-4.25v4.25c0 0.55-0.45 1-1 1h-3.25c-0.55 0-1-0.45-1-1v-4.25h-4.25c-0.55 0-1-0.45-1-1v-3.25c0-0.55 0.45-1 1-1h4.25v-4.25c0-0.55 0.45-1 1-1h3.25c0.55 0 1 0.45 1 1v4.25h4.25c0.55 0 1 0.45 1 1v3.25c0 0.55-0.45 1-1 1" fill="#f9f9f9"/></g><g transform="translate(99.93 88.042)"><path d="m0 0h-2.811v2.811c0 0.363-0.298 0.661-0.662 0.661h-2.15c-0.363 0-0.66-0.298-0.66-0.661v-2.811h-2.813c-0.363 0-0.66-0.298-0.66-0.662v-2.149c0-0.364 0.297-0.662 0.66-0.662h2.813v-2.811c0-0.363 0.297-0.661 0.66-0.661h2.15c0.364 0 0.662 0.298 0.662 0.661v2.811h2.811c0.363 0 0.66 0.298 0.66 0.662v2.149c0 0.364-0.297 0.662-0.66 0.662" fill="#f9f9f9"/></g><g transform="translate(15.983 21.736)"><path d="m0 0h-1.462v1.461c0 0.189-0.154 0.344-0.344 0.344h-1.118c-0.188 0-0.344-0.155-0.344-0.344v-1.461h-1.461c-0.189 0-0.344-0.155-0.344-0.344v-1.119c0-0.188 0.155-0.344 0.344-0.344h1.461v-1.461c0-0.189 0.156-0.343 0.344-0.343h1.118c0.19 0 0.344 0.154 0.344 0.343v1.461h1.462c0.189 0 0.344 0.156 0.344 0.344v1.119c0 0.189-0.155 0.344-0.344 0.344" fill="#f9f9f9"/></g><g transform="translate(115.15 19.222)"><path d="m0 0h-6.139v6.139c0 0.794-0.65 1.444-1.445 1.444h-4.693c-0.795 0-1.446-0.65-1.446-1.444v-6.139h-6.138c-0.795 0-1.446-0.65-1.446-1.444v-4.695c0-0.794 0.651-1.444 1.446-1.444h6.138v-6.139c0-0.795 0.651-1.445 1.446-1.445h4.693c0.795 0 1.445 0.65 1.445 1.445v6.139h6.139c0.793 0 1.443 0.65 1.443 1.444v4.695c0 0.794-0.65 1.444-1.443 1.444" fill="#f9f9f9"/></g><g transform="translate(75.258 38.08)"><path d="m0 0h-41.561c-1.838 6e-3 -3.498 1.103-4.234 2.795-0.254 0.576-0.385 1.193-0.385 1.824v24.319c7e-3 2.541 2.076 4.612 4.614 4.618h41.562c2.543-6e-3 4.613-2.077 4.618-4.616l-1e-3 -24.321c-4e-3 -2.543-2.074-4.613-4.613-4.619" fill="#00fff1"/></g><g transform="translate(78.026 42.699)"><path d="m0 0c-4e-3 -1.512-1.26-2.77-2.771-2.772h-41.558c-1.129 2e-3 -2.112 0.703-2.542 1.686-0.145 0.335-0.229 0.702-0.229 1.086v24.319c4e-3 1.513 1.258 2.768 2.771 2.772h41.558c1.511-4e-3 2.767-1.259 2.771-2.772l-2e-3 -24.319zm-29.833-6.652-12.787-10.467c-0.199-0.162-0.371-0.271-0.5-0.336-0.03 0.141-0.058 0.34-0.055 0.6v10.39h13.581c-0.078-0.06-0.164-0.127-0.239-0.187m27.062 37.435-41.558 2e-3c-3.569-8e-3 -6.459-2.897-6.465-6.466l-2e-3 -24.319c5e-3 -2.668 1.621-4.952 3.925-5.941v-10.914c6e-3 -1.061 0.201-2.051 0.781-2.92 0.544-0.856 1.62-1.463 2.662-1.463h0.076c1.169 0.015 2.163 0.527 3.071 1.263l12.789 10.465c1.059 0.869 2.647 2.011 4.2 3.045h20.521c3.567 8e-3 6.457 2.895 6.464 6.465v24.319c-7e-3 3.569-2.897 6.458-6.464 6.464" fill="#233148"/></g></g></g></svg>
