<?xml version="1.0" encoding="UTF-8"?>
<!-- Created with Inkscape (http://www.inkscape.org/) -->
<svg width="155.45" height="141.35" version="1.1" viewBox="0 0 155.45 141.35" xml:space="preserve" xmlns="http://www.w3.org/2000/svg"><defs><clipPath id="clipPath16"><path d="M 0,106.014 H 116.591 V 0 H 0 Z"/></clipPath></defs><g transform="matrix(1.3333 0 0 -1.3333 0 141.35)"><g clip-path="url(#clipPath16)"><g transform="translate(97.918 50.335)"><path d="m0 0c0-24.3-19.699-44-44-44s-44 19.7-44 44 19.699 44 44 44 44-19.7 44-44" fill="#f9f9f9"/></g><g transform="translate(7.668,21.002)"><path d="m0 0c0-2.117-1.716-3.834-3.834-3.834-2.117 0-3.834 1.717-3.834 3.834s1.717 3.834 3.834 3.834c2.118 0 3.834-1.717 3.834-3.834" fill="#f9f9f9"/></g><g transform="translate(37.669 98.418)"><path d="m0 0c0-1.197-0.971-2.167-2.168-2.167-1.196 0-2.167 0.97-2.167 2.167s0.971 2.167 2.167 2.167c1.197 0 2.168-0.97 2.168-2.167" fill="#f9f9f9"/></g><g transform="translate(20.669 7.918)"><path d="m0 0c0-4.372-3.544-7.918-7.918-7.918-4.371 0-7.917 3.546-7.917 7.918 0 4.373 3.546 7.917 7.917 7.917 4.374 0 7.918-3.544 7.918-7.917" fill="#f9f9f9"/></g><g transform="translate(104.67 73.085)"><path d="m0 0c0-2.209-1.791-4-4-4s-4 1.791-4 4 1.791 4 4 4 4-1.791 4-4" fill="#f9f9f9"/></g><g transform="translate(24.591 100.76)"><path d="m0 0h-4.25v4.25c0 0.55-0.45 1-1 1h-3.25c-0.55 0-1-0.45-1-1v-4.25h-4.25c-0.55 0-1-0.45-1-1v-3.25c0-0.55 0.45-1 1-1h4.25v-4.25c0-0.55 0.45-1 1-1h3.25c0.55 0 1 0.45 1 1v4.25h4.25c0.55 0 1 0.45 1 1v3.25c0 0.55-0.45 1-1 1" fill="#f9f9f9"/></g><g transform="translate(99.93 88.042)"><path d="m0 0h-2.811v2.811c0 0.363-0.298 0.661-0.662 0.661h-2.15c-0.363 0-0.66-0.298-0.66-0.661v-2.811h-2.813c-0.363 0-0.66-0.298-0.66-0.662v-2.149c0-0.364 0.297-0.662 0.66-0.662h2.813v-2.811c0-0.363 0.297-0.661 0.66-0.661h2.15c0.364 0 0.662 0.298 0.662 0.661v2.811h2.811c0.363 0 0.66 0.298 0.66 0.662v2.149c0 0.364-0.297 0.662-0.66 0.662" fill="#f9f9f9"/></g><g transform="translate(15.983 21.736)"><path d="m0 0h-1.462v1.461c0 0.189-0.154 0.344-0.344 0.344h-1.118c-0.188 0-0.344-0.155-0.344-0.344v-1.461h-1.461c-0.189 0-0.344-0.155-0.344-0.344v-1.119c0-0.188 0.155-0.344 0.344-0.344h1.461v-1.461c0-0.189 0.156-0.343 0.344-0.343h1.118c0.19 0 0.344 0.154 0.344 0.343v1.461h1.462c0.189 0 0.344 0.156 0.344 0.344v1.119c0 0.189-0.155 0.344-0.344 0.344" fill="#f9f9f9"/></g><g transform="translate(115.15 19.222)"><path d="m0 0h-6.139v6.139c0 0.794-0.65 1.444-1.445 1.444h-4.693c-0.795 0-1.446-0.65-1.446-1.444v-6.139h-6.138c-0.795 0-1.446-0.65-1.446-1.444v-4.695c0-0.794 0.651-1.444 1.446-1.444h6.138v-6.139c0-0.795 0.651-1.445 1.446-1.445h4.693c0.795 0 1.445 0.65 1.445 1.445v6.139h6.139c0.793 0 1.443 0.65 1.443 1.444v4.695c0 0.794-0.65 1.444-1.443 1.444" fill="#f9f9f9"/></g><g transform="translate(65.589 31.641)"><path d="m0 0h-23.344c-2.743 0-4.982 2.234-4.985 4.98v31.698c3e-3 2.746 2.238 4.982 4.983 4.987h23.346c2.744-5e-3 4.978-2.239 4.986-4.983v-31.7c-8e-3 -2.752-2.242-4.982-4.986-4.982" fill="#00fff1"/></g><g transform="translate(57.786 28.63)"><path d="m0 0h-7.735c-0.549 0-0.999-0.448-0.999-0.996v-1.996c0-0.548 0.45-0.998 0.999-0.998h7.735c0.549 0 0.998 0.45 0.998 0.998v1.996c0 0.548-0.449 0.996-0.998 0.996m10.794 7.993c-3e-3 -1.631-1.357-2.988-2.99-2.99h-23.344c-1.632 2e-3 -2.99 1.359-2.992 2.99v31.696c2e-3 1.63 1.36 2.988 2.992 2.991h23.344c1.633-3e-3 2.987-1.361 2.99-2.991zm0-10.234c-3e-3 -1.632-1.357-2.988-2.99-2.991h-23.344c-1.632 3e-3 -2.99 1.359-2.992 2.991v3.941c0.907-0.433 1.92-0.683 2.992-0.683h23.344c1.072 0 2.085 0.25 2.99 0.683zm-26.334 50.882h23.344c1.51-4e-3 2.77-1.173 2.953-2.641-0.898 0.421-1.896 0.666-2.953 0.668l-23.344 1e-3c-1.057-1e-3 -2.056-0.246-2.955-0.669 0.182 1.468 1.444 2.637 2.955 2.641m23.344 3.988h-23.344c-3.853-8e-3 -6.973-3.128-6.979-6.98l-1e-3 -17.625v-30.265c7e-3 -3.85 3.127-6.971 6.98-6.978h23.344c3.852 7e-3 6.972 3.128 6.978 6.978h1e-3v47.89c-7e-3 3.852-3.127 6.972-6.979 6.98" fill="#233148"/></g></g></g></svg>
