<?xml version="1.0" encoding="UTF-8"?>
<!-- Created with Inkscape (http://www.inkscape.org/) -->
<svg width="248.51" height="518.51" version="1.1" viewBox="0 0 248.51 518.51" xml:space="preserve" xmlns="http://www.w3.org/2000/svg"><defs><clipPath id="clipPath16"><path d="M 0,388.883 H 186.385 V 0 H 0 Z"/></clipPath></defs><g transform="matrix(1.3333 0 0 -1.3333 0 518.51)"><g clip-path="url(#clipPath16)"><g transform="translate(161.68)"><path d="m0 0h-136.98c-13.621 0-24.703 11.081-24.703 24.701v339.48c0 13.619 11.082 24.7 24.703 24.7h136.98c13.621 0 24.701-11.081 24.701-24.7v-339.48c0-13.62-11.08-24.701-24.701-24.701" fill="#161f32"/></g><g transform="translate(162.41 382.42)"><path d="m0 0h-138.43c-9.558 0-17.379-7.821-17.379-17.379v-341.19c0-9.557 7.821-17.376 17.379-17.376h138.43c9.56 0 17.381 7.819 17.381 17.376v341.19c0 9.558-7.821 17.379-17.381 17.379" fill="#131316"/><path d="m0 0h-18.305c-1.066 0-1.975-0.702-2.293-1.667v-2.437c0-5.311-4.345-9.656-9.655-9.656h-77.886c-5.308 0-9.656 4.345-9.656 9.656v1.693c0 1.325-1.086 2.411-2.412 2.411h-18.225c-9.558 0-17.379-7.821-17.379-17.379v-341.19c0-9.557 7.821-17.376 17.379-17.376h138.43c9.56 0 17.381 7.819 17.381 17.376v341.19c0 9.558-7.821 17.379-17.381 17.379" fill="#00fff1"/></g><g transform="translate(111.3 375.77)"><path d="m0 0c0-1.66-1.347-3.006-3.008-3.006s-3.011 1.346-3.011 3.006c0 1.663 1.35 3.007 3.011 3.007s3.008-1.344 3.008-3.007" fill="#3d4652"/></g><g transform="translate(97.64 374.24)"><path d="m0 0h-20.998c-0.86 0-1.557 0.696-1.557 1.556v0.245c0 0.856 0.697 1.555 1.557 1.555h20.998c0.856 0 1.556-0.699 1.556-1.555v-0.245c0-0.86-0.7-1.556-1.556-1.556" fill="#3d4652"/></g></g></g></svg>
