<?xml version="1.0" encoding="UTF-8"?>
<!-- Created with Inkscape (http://www.inkscape.org/) -->
<svg width="372.54" height="777.28" version="1.1" viewBox="0 0 372.54 777.28" xml:space="preserve" xmlns="http://www.w3.org/2000/svg"><defs><clipPath id="clipPath16"><path d="M 0,582.963 H 279.406 V 0 H 0 Z"/></clipPath></defs><g transform="matrix(1.3333 0 0 -1.3333 0 777.28)"><g clip-path="url(#clipPath16)"><g transform="translate(242.38)"><path d="m0 0h-205.35c-20.417 0-37.03 16.612-37.03 37.029v508.91c0 20.417 16.613 37.028 37.03 37.028h205.35c20.419 0 37.03-16.611 37.03-37.028v-508.91c0-20.417-16.611-37.029-37.03-37.029" fill="#161f32"/></g><g transform="translate(243.46 573.27)"><path d="m0 0h-207.52c-14.329 0-26.052-11.724-26.052-26.052v-511.47c0-14.326 11.723-26.049 26.052-26.049h207.52c14.33 0 26.055 11.723 26.055 26.049v511.47c0 14.328-11.725 26.052-26.055 26.052" fill="#131316"/><path d="m0 0h-27.439c-1.6 0-2.962-1.052-3.439-2.499v-3.653c0-7.962-6.514-14.473-14.474-14.473h-116.76c-7.959 0-14.476 6.511-14.476 14.473v2.537c0 1.989-1.629 3.615-3.617 3.615h-27.32c-14.329 0-26.052-11.724-26.052-26.052v-511.47c0-14.326 11.723-26.049 26.052-26.049h207.52c14.33 0 26.055 11.723 26.055 26.049v511.47c0 14.328-11.725 26.052-26.055 26.052" fill="#00fff1"/></g><g transform="translate(166.85 563.31)"><path d="m0 0c0-2.49-2.021-4.506-4.511-4.506s-4.511 2.016-4.511 4.506c0 2.493 2.021 4.508 4.511 4.508s4.511-2.015 4.511-4.508" fill="#3d4652"/></g><g transform="translate(146.37 561.02)"><path d="m0 0h-31.477c-1.289 0-2.335 1.043-2.335 2.331v0.369c0 1.285 1.046 2.332 2.335 2.332h31.477c1.285 0 2.332-1.047 2.332-2.332v-0.369c0-1.288-1.047-2.331-2.332-2.331" fill="#3d4652"/></g></g></g></svg>
